<?xml version="1.0" encoding="utf-8"?>
<!-- Generator: Adobe Illustrator 16.0.0, SVG Export Plug-In . SVG Version: 6.00 Build 0)  -->
<!DOCTYPE svg PUBLIC "-//W3C//DTD SVG 1.1//EN" "http://www.w3.org/Graphics/SVG/1.1/DTD/svg11.dtd">
<svg version="1.1" id="Layer_1" xmlns="http://www.w3.org/2000/svg" xmlns:xlink="http://www.w3.org/1999/xlink" x="0px" y="0px"
	 width="743.882px" height="139.992px" viewBox="32.1 33.099 743.882 139.992" enable-background="new 32.1 33.099 743.882 139.992"
	 xml:space="preserve">
<g id="Layer_1_1_">
	<polygon points="116.913,106.504 65.83,33.099 65.698,33.099 65.698,95.75 65.83,95.942 116.913,170.912 94.864,138.552 	"/>
	<polygon fill="#F8A141" points="167.344,33.205 116.913,106.504 138.962,138.552 116.913,170.912 167.344,96.902 167.344,34.26 	
		"/>
	<polygon fill="#C77B2A" points="116.913,106.504 94.864,138.552 116.913,170.912 138.962,138.552 	"/>
	<polygon fill="#D21F38" points="167.344,33.099 167.344,33.205 167.417,33.099 	"/>
	<polygon fill="#D21F38" points="200.223,33.099 200.223,48.651 167.344,96.902 167.344,97.957 167.344,173.091 200.941,173.091 
		200.941,48.651 200.941,33.099 	"/>
	<polygon fill="#9F1D2D" points="200.922,33.12 168.136,33.099 167.417,33.099 167.344,33.205 167.344,34.26 167.344,96.902 
		200.922,48.673 	"/>
	<polygon fill="#3FB8E5" points="32.231,33.099 32.1,33.099 32.1,46.635 32.1,173.091 65.698,173.091 65.698,95.942 65.698,95.75 
		32.231,46.635 	"/>
	<polygon fill="#008BC1" points="32.231,33.099 32.231,46.635 65.698,95.75 65.698,33.099 	"/>
	<g>
		<path d="M295.768,77.999h12.206l13.53,21.766l13.53-21.766h12.206v51.474h-11.25V95.867l-14.486,21.986h-0.294l-14.338-21.767
			v33.384h-11.104V77.999L295.768,77.999z"/>
		<path d="M389.003,77.631h10.441l22.06,51.84h-11.838l-4.706-11.544h-21.766l-4.706,11.544h-11.544L389.003,77.631z
			 M400.915,107.926l-6.838-16.692l-6.838,16.692H400.915z"/>
		<path d="M441.207,77.999h10.441l24.117,31.692V77.999h11.179v51.474h-9.634L452.384,96.75v32.723h-11.177V77.999z"/>
		<path d="M511.06,77.999h20.074c16.177,0,27.354,11.104,27.354,25.589v0.146c0,14.486-11.178,25.736-27.354,25.736H511.06V77.999z
			 M531.134,119.25c9.266,0,15.517-6.25,15.517-15.368v-0.147c0-9.117-6.251-15.515-15.517-15.515h-8.75v31.03H531.134z"/>
		<path d="M580.323,77.999h23.53c6.543,0,11.617,1.838,15,5.221c2.867,2.868,4.411,6.912,4.411,11.765v0.147
			c0,8.31-4.484,13.53-11.028,15.957l12.574,18.384h-13.236L600.545,113h-0.146h-8.75v16.471h-11.324L580.323,77.999L580.323,77.999
			z M603.118,103c5.515,0,8.677-2.941,8.677-7.28v-0.146c0-4.854-3.383-7.354-8.896-7.354h-11.25V103H603.118z"/>
		<path d="M645.764,77.999h11.324v51.474h-11.324V77.999z"/>
		<path d="M681.719,77.999h11.324v41.178h25.662v10.294h-36.986V77.999z"/>
		<path d="M738.997,77.999h11.324v41.178h25.661v10.294h-36.985V77.999L738.997,77.999z"/>
	</g>
</g>
<g id="Layer_2">
</g>
</svg>
